<?xml version="1.0" encoding="UTF-8"?>
<svg width="123px" height="123px" viewBox="0 0 123 123" version="1.1" xmlns="http://www.w3.org/2000/svg" xmlns:xlink="http://www.w3.org/1999/xlink">
    <!-- Generator: Sketch 47 (45396) - http://www.bohemiancoding.com/sketch -->
    <title>Group 4</title>
    <desc>Created with Sketch.</desc>
    <defs></defs>
    <g id="-" stroke="none" stroke-width="1" fill="none" fill-rule="evenodd">
        <g id="Article" transform="translate(-656.000000, -1771.000000)">
            <g id="Group-4" transform="translate(656.000000, 1771.000000)">
                <rect id="Rectangle-10" fill="#FFA24E" x="0" y="0" width="123" height="123"></rect>
                <g id="success" transform="translate(30.000000, 30.000000)" fill-rule="nonzero">
                    <circle id="Oval" fill="#2D9EE7" cx="31.5" cy="31.5" r="31.5"></circle>
                    <path d="M38.9886792,9.5960726 L38.9886792,28.475242 L37.5108585,27.7706452 L37.5108585,30.6679245 L20.6514684,30.6679245 L20.6514684,28.5538872 L19.9698113,28.9169885 L19.9698113,9.5960726 C19.9698113,7.46030599 20.6614999,5.48516325 21.8307889,3.8916411 C23.0016682,2.29651395 24.6502703,1.08127892 26.562629,0.460265792 C27.4814959,0.160747334 28.4600628,0 29.4783889,0 L29.4801016,0 C34.7310141,0 38.9886792,4.29659598 38.9886792,9.5960726 Z" id="Shape" fill="#5C5E70"></path>
                    <path d="M29.2984487,30.5637243 C29.3481127,30.7855705 29.3763698,30.9056604 29.3763698,30.9056604 L23.427576,30.5637243 L20.651407,30.4035225 L20.651407,28.4567383 L19.9698113,28.8186073 L19.9698113,9.56350657 C19.9698113,7.43498807 20.6614377,5.46654834 21.8306213,3.8784341 C23.0013952,2.2887203 24.6498488,1.0776094 26.5620354,0.458703795 C27.4808195,0.160201808 28.4592983,0 29.4775327,0 L29.4792453,0 C29.4792453,0 26.4693129,1.26783367 26.223684,8.79448867 C25.999829,15.6423162 28.7909217,28.3252054 29.2984487,30.5637243 Z" id="Shape" fill="#494B5B"></path>
                    <g id="Group" transform="translate(16.403774, 24.249057)" fill="#F9F9F9">
                        <path d="M26.0971682,8.18817307 L16.4722705,16.7959423 L0.0336401807,29.6813715 L0.0336401807,8.18817307 C0.0336401807,3.77772334 3.51429391,0.183017991 7.86554079,0.0277673957 C7.96240978,0.0234480231 8.06062929,0.0207329888 8.16032208,0.0207329888 L17.9719596,0.0207329888 C18.0701791,0.0207329888 18.1698719,0.0235714337 18.2653904,0.0277673957 C22.6179878,0.183141401 26.0971682,3.77772334 26.0971682,8.18817307 Z" id="Shape"></path>
                        <path d="M21.7302062,4.7810519 L21.7302062,38.0466388 C19.5929498,38.5083181 17.3761355,38.7506966 15.1016173,38.7506966 C11.3441074,38.7506966 7.74055647,38.087858 4.40121605,36.8718929 L4.40121605,4.7810519 C4.40121605,2.59532592 5.86628275,0.753915647 7.86492692,0.195482466 C8.27032793,0.0807105636 8.69488174,0.0201159356 9.13748339,0.0201159356 L16.9938161,0.0201159356 C17.4350672,0.0201159356 17.8610943,0.0807105636 18.2663726,0.195482466 C20.2651395,0.753915647 21.7302062,2.59532592 21.7302062,4.7810519 Z" id="Shape"></path>
                    </g>
                    <path d="M27.2844515,24.4936612 C27.3805807,24.4890003 27.4789085,24.4867925 27.5773585,24.4867925 L24.4881543,24.4867925 C24.3897043,24.4867925 24.2913764,24.4891229 24.1952472,24.4936612 C19.8658907,24.6475957 16.4037736,28.2207149 16.4037736,32.6049644 L16.4037736,53.9660377 L19.4929778,53.9660377 L19.4929778,32.6049644 C19.4929778,28.2208375 22.955095,24.6477184 27.2844515,24.4936612 Z" id="Shape" fill="#E8E8E8"></path>
                    <g id="Group" transform="translate(24.724528, 21.158491)" fill="#E5BFA3">
                        <path d="M9.41310463,3.25521194 L9.41310463,5.99380452 C9.41310463,8.5872262 7.31855918,10.6969936 4.74533105,10.6969936 C3.85416123,10.6969936 2.98695026,10.4423537 2.23842196,9.96292892 C1.94881647,9.77658271 1.68193482,9.56038131 1.44321098,9.31992255 C0.560562607,8.42799846 0.0759519726,7.24710092 0.0759519726,5.99380452 L0.0759519726,3.25521194 L9.41310463,3.25521194 L9.41310463,3.25521194 Z" id="Shape"></path>
                        <path d="M8.28382847,0.056102896 L8.28382847,5.99368012 C8.28382847,7.96188416 6.70143396,9.55839096 4.74483705,9.55839096 C4.04533791,9.55839096 3.39474443,9.35475362 2.84554374,9.00233787 C2.62695026,8.86201843 2.42478216,8.69955638 2.24163293,8.51520053 C1.60203087,7.86833787 1.20596913,6.97641378 1.20596913,5.99368012 L1.20596913,0.056102896 L8.28382847,0.056102896 L8.28382847,0.056102896 Z" id="Shape"></path>
                    </g>
                    <g id="Group" transform="translate(22.347170, 8.796226)" fill="#F9D6B9">
                        <path d="M10.7928743,16.4518176 L10.7928743,18.3305719 C10.7928743,20.2746955 9.20473179,21.8516695 7.24102758,21.8516695 C6.53898752,21.8516695 5.88603077,21.6505236 5.33483512,21.3024196 L5.33483512,18.8235452 C5.33483512,17.513578 6.40599158,16.4516947 7.72739855,16.4516947 L10.7928743,16.4516947 L10.7928743,16.4518176 Z" id="Shape"></path>
                        <path d="M14.4176023,5.05912037 L14.4176023,7.57682315 C14.4176023,9.74113827 13.6139251,11.7014814 12.3139611,13.1182268 C11.0166,14.5375525 9.22282816,15.4157381 7.23991205,15.4157381 C7.12749144,15.4157381 7.01779768,15.4130348 6.90525312,15.4048022 C3.09832192,15.2171725 0.0620978229,11.783193 0.0620978229,7.57682315 L0.0620978229,3.64249786 C0.210091437,3.61546542 0.355606096,3.57995463 0.492692308,3.54198635 C1.28818897,3.3299046 1.90520087,2.98732991 2.37967286,2.59843146 C2.72251234,2.31557388 2.99135501,2.00838711 3.20516488,1.70931007 C3.76466502,0.923403434 3.91823628,0.186646682 3.94017504,0.072496078 C3.94290189,0.0642634725 3.94290189,0.061560229 3.94290189,0.0588569854 C4.58470334,0.575545135 5.3911074,1.11385923 6.37289753,1.5488357 C6.90215443,1.78819563 7.48099042,1.99474802 8.10903367,2.15522239 C8.75083512,2.32110324 9.44754543,2.43807997 10.1963138,2.4869841 C12.6732856,2.64745847 13.860829,3.73231927 14.4176023,5.05912037 Z" id="Shape"></path>
                    </g>
                    <g id="Group" transform="translate(22.347170, 11.411321)" fill="#E5BFA3">
                        <path d="M6.82292521,12.7608317 C3.06138216,12.5741343 0.0613574614,9.15721811 0.0613574614,4.97174943 L0.0613574614,1.18681811 C0.210403431,1.11370415 0.35406072,1.03802264 0.486818182,0.956839245 C1.27283053,0.745811321 1.88248611,0.404938868 2.3513012,0.0179728302 L2.3513012,5.5127683 C2.3513012,8.80277434 4.20243499,11.6164392 6.82292521,12.7608317 Z" id="Shape"></path>
                        <path d="M8.0127211,4.39759698 C8.0127211,4.86024453 7.66515129,5.27398642 7.20233722,5.29782792 C6.70719108,5.32338113 6.29728405,4.93274717 6.29728405,4.44405736" id="Shape"></path>
                    </g>
                    <path d="M32.0943396,18.5433962 C32.0943396,18.788453 32.0565839,19.0251126 31.9811966,19.2471066 C31.8724004,19.5893819 31.6816345,19.9000789 31.4310059,20.1557801 C30.9761981,20.6269704 30.3215581,20.9207547 29.5981132,20.9207547 C28.8747925,20.9207547 28.2201525,20.6269704 27.7652206,20.1557801 C27.5144677,19.9000789 27.3235776,19.5895002 27.2150298,19.2471066 C27.1396425,19.0252309 27.1018868,18.7885713 27.1018868,18.5433962 L32.0943396,18.5433962 Z" id="Shape" fill="#FFFFFF"></path>
                    <g id="Group" transform="translate(25.200000, 12.600000)" fill="#5C5E70">
                        <path d="M8.54748679,2.48735094 L8.54748679,0.850812579 C8.54748679,0.423927044 8.20429132,0.0780301887 7.78101283,0.0780301887 L7.78101283,0.0780301887 C7.35761208,0.0780301887 7.01453887,0.424050314 7.01453887,0.850812579 L7.01453887,2.48735094 C7.01453887,2.91423648 7.35773434,3.26013333 7.78101283,3.26013333 L7.78101283,3.26013333 C8.20416906,3.2602566 8.54748679,2.91423648 8.54748679,2.48735094 Z" id="Shape"></path>
                        <path d="M0.115295094,0.850689308 L0.115295094,2.48722767 C0.115295094,2.91411321 0.458490566,3.26001006 0.881769057,3.26001006 L0.881769057,3.26001006 C1.30516981,3.26001006 1.64824302,2.91398994 1.64824302,2.48722767 L1.64824302,0.850689308 C1.64824302,0.423803774 1.30504755,0.0779069182 0.881769057,0.0779069182 L0.881769057,0.0779069182 C0.458490566,0.0779069182 0.115295094,0.423927044 0.115295094,0.850689308 Z" id="Shape"></path>
                    </g>
                    <g id="Group" transform="translate(25.437736, 13.550943)" fill="#797B89">
                        <ellipse id="Oval" cx="7.79791326" cy="0.4284" rx="1" ry="1"></ellipse>
                        <circle id="Oval" cx="7.35232301" cy="1.38637736" r="1"></circle>
                        <ellipse id="Oval" cx="0.789229794" cy="0.4284" rx="1" ry="1"></ellipse>
                        <circle id="Oval" cx="0.344881442" cy="1.38637736" r="1"></circle>
                    </g>
                    <path d="M39.4641509,33.7584906 L37.9473916,41.1021743 L22.7440897,41.1021743 L22.7440897,61.8113208 C22.0476498,61.610939 21.3614822,61.3886751 20.6868098,61.1420703 C20.685587,61.1420703 20.6842418,61.140841 20.6830189,61.140841 L20.6830189,33.7598428 C21.2528889,33.7598428 21.7678509,33.9923103 22.1409568,34.3673806 C22.5128399,34.742451 22.7440897,35.2613537 22.7440897,35.8329949 C22.7440897,37.4810426 24.073012,38.8169619 25.712428,38.8169619 L34.9778305,38.8169619 C36.6172464,38.8169619 37.9473916,37.4810426 37.9473916,35.8329949 L37.9473916,35.2818836 C37.9473916,34.440649 38.6258549,33.7584906 39.4641509,33.7584906 Z" id="Shape" fill="#E8E8E8"></path>
                    <path d="M59.6040907,27.3976671 L55.5523807,40.422983 C55.1563776,41.6935982 53.4269097,41.8507139 52.8096469,40.6729623 L51.3116525,37.8121976 L13.8088772,57.5320755 C10.5698474,55.3169159 7.76546106,52.5102907 5.54732674,49.269439 C5.28115062,48.3313074 5.69782762,47.3042587 6.59271099,46.8326648 L45.3620071,26.4467098 L43.8640127,23.585945 C43.2481036,22.4081934 44.3603087,21.0706129 45.6269526,21.4674721 L58.6241737,25.5279402 C59.409904,25.7727399 59.8483624,26.6103618 59.6040907,27.3976671 Z" id="Shape" fill="#FF5A5A"></path>
                    <path d="M22.3471698,54.3226415 C22.3471698,54.8683051 22.2103905,55.3817559 21.970386,55.8310254 C21.4303456,56.842675 20.3642964,57.5320755 19.1376748,57.5320755 C17.3655221,57.5320755 15.9283019,56.0948279 15.9283019,54.3226415 C15.9283019,52.8574519 16.9106485,51.6211676 18.2530627,51.2387639 C18.5335762,51.1564018 18.8306839,51.1132075 19.1377969,51.1132075 C20.9098276,51.1132075 22.3471698,52.5504551 22.3471698,54.3226415 Z" id="Shape" fill="#E5BFA3"></path>
                    <path d="M22.5849057,54.422387 C22.5849057,54.9849878 22.4467163,55.514376 22.2042376,55.9775907 C21.9208323,56.0611253 21.6206617,56.1056604 21.3103828,56.1056604 C19.519961,56.1056604 18.0679245,54.625185 18.0679245,52.7966067 C18.0679245,52.2353898 18.2061139,51.7061274 18.4485926,51.2426611 C18.7319979,51.1577426 19.0321685,51.1132075 19.3424474,51.1132075 C21.1327459,51.1133334 22.5849057,52.5951926 22.5849057,54.422387 Z" id="Shape" fill="#F9D6B9"></path>
                    <path d="M44.2188679,43.3867925 C44.2188679,43.932456 44.0820886,44.4459069 43.8420841,44.8951764 C43.3020437,45.9068259 42.2359945,46.5962264 41.009373,46.5962264 C39.2372202,46.5962264 37.8,45.1589789 37.8,43.3867925 C37.8,41.9216028 38.7823466,40.6853186 40.1247608,40.3029148 C40.4052744,40.2205528 40.702382,40.1773585 41.009495,40.1773585 C42.7816477,40.1773585 44.2188679,41.6146061 44.2188679,43.3867925 Z" id="Shape" fill="#E5BFA3"></path>
                    <path d="M44.2188679,43.486538 C44.2188679,44.0491388 44.0806785,44.578527 43.8381999,45.0417416 C43.5547945,45.1252763 43.254624,45.1698113 42.944345,45.1698113 C41.1539233,45.1698113 39.7018868,43.6893359 39.7018868,41.8607576 C39.7018868,41.2995407 39.8400762,40.7702783 40.0825548,40.306812 C40.3659602,40.2218935 40.6661307,40.1773585 40.9764097,40.1773585 C42.7668314,40.1774843 44.2188679,41.6593435 44.2188679,43.486538 Z" id="Shape" fill="#F9D6B9"></path>
                </g>
            </g>
        </g>
    </g>
</svg>