<?xml version="1.0" encoding="UTF-8"?>
<svg width="23px" height="24px" viewBox="0 0 23 24" version="1.1" xmlns="http://www.w3.org/2000/svg" xmlns:xlink="http://www.w3.org/1999/xlink">
    <!-- Generator: Sketch 47 (45396) - http://www.bohemiancoding.com/sketch -->
    <title>team</title>
    <desc>Created with Sketch.</desc>
    <defs></defs>
    <g id="Desktop" stroke="none" stroke-width="1" fill="none" fill-rule="evenodd">
        <g id="Authors" transform="translate(-384.000000, -491.000000)" fill-rule="nonzero" fill="#000000">
            <g id="team" transform="translate(384.118227, 491.000000)">
                <path d="M19.8313677,20.1750469 L19.4646377,20.0169375 C21.3088818,17.8110938 22.3211823,14.9777812 22.3211823,12 C22.3211823,9.56385937 21.636201,7.21982812 20.3881766,5.24934375 C20.3730488,5.21732812 20.3543025,5.1885 20.3325044,5.16332812 C19.7857663,4.3160625 19.1349207,3.53896875 18.388033,2.85585937 C18.2397628,2.72025 18.0173793,2.7395625 17.8912559,2.89898437 C17.7651325,3.05840625 17.7830941,3.29760938 17.9313207,3.43317188 C18.5305049,3.9811875 19.0638155,4.59375 19.5264569,5.25670312 C18.7804411,5.57020312 17.8849781,5.83570313 16.8853204,6.04546875 C16.6093574,5.16140625 16.27018,4.33715625 15.8714505,3.59348438 C15.3340419,2.5910625 14.7158933,1.783875 14.0422034,1.19020313 C15.0907323,1.51251562 16.0895616,2.01192188 17.0061687,2.6776875 C17.1674741,2.79473437 17.3865007,2.74921875 17.4954909,2.57578125 C17.6044374,2.40239062 17.5620185,2.16684375 17.4007131,2.04965625 C15.5548995,0.70875 13.397069,0 11.1605911,0 C8.17944901,0 5.37683276,1.2481875 3.2689197,3.51478125 C1.16087586,5.78123438 0,8.79473438 0,12 C0,14.981625 1.01369557,17.8153125 2.86094778,20.0219531 L2.49883892,20.1744375 C2.36547857,20.2262344 1.23150148,20.7125625 1.23150148,22.2628594 L1.23150148,23.6206875 C1.23150148,23.8300312 1.38923202,24 1.58393202,24 L3.61132315,24 L3.92691502,24 L4.30284384,24 L6.10606404,24 L6.77160148,24 C6.78860394,24 6.80521404,23.9982656 6.82156256,23.9957344 C6.83795468,23.9982656 6.85452118,24 6.87152365,24 L8.30557241,24 C8.50027241,24 8.65800296,23.8304062 8.65800296,23.6210625 C8.65800296,23.4117187 8.50022882,23.242125 8.30557241,23.242125 L7.22395419,23.242125 L7.22395419,21.9223594 C7.22395419,20.5299844 8.24113744,20.1294844 8.28220493,20.1139219 C8.28765443,20.1119531 8.29306034,20.1098437 8.29846626,20.1075469 L10.0147559,19.3848281 C10.0184616,19.3891406 10.0219493,19.3936406 10.0258729,19.3977656 L10.9379897,20.3529844 C11.0038633,20.4218906 11.0921453,20.4604687 11.183915,20.4604687 C11.1857461,20.4604687 11.1876207,20.4604687 11.1894517,20.4604219 C11.2832268,20.458875 11.3726424,20.4171094 11.4376441,20.3444531 L12.3134453,19.3673906 L14.0274244,20.1064219 C14.0336586,20.1091406 14.0377567,20.1108281 14.0441217,20.1130781 C14.0874126,20.1294375 15.1047266,20.5300781 15.1047266,21.9223594 L15.1047266,23.242125 L12.5268916,23.242125 L9.80165837,23.242125 L9.40707044,23.242125 C9.21237044,23.242125 9.0546399,23.4117656 9.0546399,23.6210625 C9.0546399,23.8304062 9.21241404,24 9.40707044,24 L9.80165837,24 L12.5268916,24 L15.4572007,24 L15.4572443,24 L15.4572879,24 L15.9069377,24 L16.222486,24 L16.598502,24 L18.401635,24 L20.7447052,24 C20.9394052,24 21.0971357,23.8276875 21.0971357,23.6183906 L21.0971357,22.2628594 C21.0972229,20.7185156 19.9717906,20.2299375 19.8313677,20.1750469 Z M18.7649645,19.71525 L18.4175475,19.5654375 L18.4175475,19.3498125 C18.801498,19.1077031 19.0965998,18.7199062 19.2368047,18.2573437 C19.7495379,18.2137969 20.1545453,17.7522187 20.1545453,17.1899531 C20.1545453,16.8555469 20.0112015,16.5566719 19.7873357,16.3598906 L19.7873357,15.6863906 C19.7873357,14.3878594 18.8810608,13.3133438 17.7130352,13.153875 C17.726332,12.8969531 17.7355308,12.6381094 17.7399776,12.3789375 L21.6097818,12.3789375 C21.5250746,15.1219219 20.5229756,17.7128438 18.7649645,19.71525 Z M17.49257,18.8621719 L17.1711362,18.8621719 C16.5483665,18.8621719 16.0417367,18.3174375 16.0417367,17.6479219 L16.0417367,16.6452656 L16.0417367,16.6452656 C16.5008468,16.5916875 17.3140441,16.4191406 17.9405631,15.8565469 C18.0808988,16.1153438 18.2980507,16.3952344 18.6219695,16.5586875 L18.6219695,17.647875 C18.6219259,18.3174375 18.1152961,18.8621719 17.49257,18.8621719 Z M17.71273,19.6053281 L17.71273,19.8154219 L17.3200167,20.2535156 L16.9510197,19.867125 L16.9510197,19.6052813 C17.0232584,19.6146094 17.0966305,19.62 17.1711798,19.62 L17.4926135,19.62 C17.5671628,19.6200469 17.6404478,19.6146563 17.71273,19.6053281 Z M15.6904397,15.912 C15.6900473,15.912 15.6896549,15.912 15.6892626,15.912 C15.6771429,15.912 15.6651103,15.9127031 15.6532958,15.9139687 C15.649503,15.9143906 15.6457973,15.9152344 15.6420044,15.9157969 C15.63407,15.9169219 15.6261355,15.9179531 15.6183754,15.9196875 C15.6130567,15.9208125 15.6079559,15.9225469 15.6027244,15.924 C15.5966645,15.9256406 15.5905611,15.9270469 15.5846756,15.9290156 C15.5808392,15.9302812 15.5772207,15.9320156 15.5734278,15.9334219 L15.5734278,15.6864375 C15.5734278,14.6961562 16.3227133,13.8905625 17.2437236,13.8905625 L17.412266,13.8905625 C18.3332328,13.8905625 19.0823874,14.6961562 19.0823874,15.6864375 L19.0823874,15.9303281 C19.0757608,15.9280312 19.069047,15.92625 19.0622461,15.9244219 C19.05902,15.9234375 19.0557938,15.9223125 19.0525241,15.9214219 C18.5611966,15.8012812 18.4005015,15.0962344 18.3993244,15.0908906 C18.3687635,14.9456719 18.2619096,14.8331719 18.1261951,14.8033594 C17.9904805,14.7734531 17.8511911,14.8318594 17.7700153,14.9525156 C17.1318126,15.901125 15.7090988,15.912 15.6904397,15.912 Z M19.3267869,17.4453281 L19.3267869,16.9346719 C19.4009874,16.991625 19.4496406,17.0847656 19.4496406,17.1900469 C19.4496406,17.2953281 19.4009874,17.388375 19.3267869,17.4453281 Z M19.9400963,5.8944375 C20.9609852,7.5901875 21.5455648,9.56428125 21.6096946,11.6210156 L17.7398032,11.6210156 C17.7112042,9.91528125 17.4895182,8.27010938 17.0942328,6.77184375 C18.1778128,6.54042188 19.1439451,6.2446875 19.9400963,5.8944375 Z M17.0348549,11.6211094 L13.4276734,11.6211094 C13.427281,11.6210625 13.4269323,11.6211094 13.4265835,11.6211094 C12.9457626,11.0496094 12.2698493,10.6720313 11.5130217,10.6092188 L11.5130217,7.35046875 C13.2425209,7.33195313 14.9115089,7.1773125 16.3984833,6.90857813 C16.7875781,8.35757813 17.0059507,9.95760938 17.0348549,11.6211094 Z M13.9258892,15.5782031 C13.9258892,15.8010938 13.7858586,15.9890156 13.5954746,16.0468125 L13.5954746,15.1094531 C13.7858586,15.1673438 13.9258892,15.3553125 13.9258892,15.5782031 Z M11.5130217,0.778921875 C12.9155505,0.939984375 14.235116,2.05889063 15.2607569,3.97195313 C15.620686,4.64325 15.9297384,5.38490625 16.1845138,6.18046875 C14.7635438,6.43064063 13.1688436,6.57464063 11.5129781,6.5925 L11.5129781,0.778921875 L11.5130217,0.778921875 Z M11.2895047,11.356875 C12.4900094,11.356875 13.4666483,12.4070625 13.4666483,13.6979063 L13.4666483,14.1609844 C13.4642941,14.1589688 13.4618091,14.1571875 13.4594113,14.1551719 C13.4543106,14.1508594 13.4491227,14.1466406 13.4437603,14.1426563 C13.4396187,14.1395625 13.4353463,14.1367031 13.4310739,14.1337969 C13.4257988,14.1301875 13.4205672,14.126625 13.4150741,14.1233438 C13.4100606,14.1202969 13.4048727,14.117625 13.3997283,14.1148594 C13.394802,14.1122344 13.3899192,14.1095625 13.3848621,14.107125 C13.3786714,14.1041719 13.3722628,14.1017344 13.3659414,14.0991563 C13.3615382,14.097375 13.3571786,14.0955469 13.3527318,14.0939531 C13.3456256,14.0914219 13.3383015,14.0894063 13.3310209,14.0873906 C13.3277948,14.0864063 13.3246123,14.0852344 13.321299,14.0843906 C12.6517943,13.9207031 12.4396995,12.982125 12.4379121,12.9739688 C12.4073512,12.82875 12.3004973,12.71625 12.1647828,12.6864375 C12.0291118,12.6564375 11.8897788,12.7149375 11.808603,12.8355938 C10.983286,14.0624063 9.16014236,14.0749688 9.13607734,14.0749688 C9.13603374,14.0749688 9.13599015,14.0749688 9.13599015,14.0749688 C9.13551059,14.0749688 9.13516182,14.0749688 9.13472586,14.0749688 C9.12260616,14.0749688 9.11057365,14.075625 9.09875911,14.0768906 C9.09505345,14.0773594 9.09147857,14.0781563 9.08777291,14.0787188 C9.07979483,14.0798906 9.07168596,14.0809219 9.06383867,14.0826094 C9.05882512,14.0837344 9.05394236,14.0854219 9.04892882,14.0867344 C9.04265099,14.0884219 9.03624236,14.0899219 9.03013892,14.0919375 C9.02442783,14.0938594 9.01893473,14.0963438 9.01335443,14.0985469 C9.00825369,14.1005625 9.00293498,14.1023438 8.99787783,14.1045938 C8.99142562,14.1075469 8.98527857,14.1110156 8.97913153,14.11425 C8.97512069,14.1163594 8.97106626,14.1181875 8.96714261,14.1204844 C8.96077759,14.1241406 8.95484852,14.1283594 8.94874507,14.1323906 C8.94525739,14.1347813 8.94159532,14.1368906 8.93810764,14.139375 C8.93244015,14.1435 8.92707783,14.1480938 8.92158473,14.1525938 C8.91805345,14.1554531 8.91439138,14.1580781 8.91094729,14.161125 C8.90772118,14.1639844 8.90471305,14.1672188 8.90153054,14.1702188 L8.90153054,13.6978594 C8.90153054,12.4070156 9.87816946,11.356875 11.0786741,11.356875 L11.2895047,11.356875 Z M5.28632734,11.6210625 C5.31523153,9.95728125 5.53369138,8.35692187 5.9228734,6.90778125 C7.41194039,7.17689062 9.08271576,7.33185937 10.8081606,7.35051562 L10.8081606,10.6131094 C10.0693382,10.6875 9.41073251,11.0625937 8.93967709,11.6235937 C8.92685985,11.6220937 8.91382463,11.6211094 8.90061502,11.6211094 L5.28632734,11.6211094 L5.28632734,11.6210625 Z M8.78229532,15.1055625 L8.78229532,16.0508438 C8.58467438,15.9982969 8.43762488,15.8066719 8.43762488,15.5782031 C8.43758128,15.3497812 8.58467438,15.1581562 8.78229532,15.1055625 Z M10.8081606,0.778921875 L10.8081606,6.5925 C9.15621872,6.5745 7.56025419,6.4299375 6.13701724,6.17929688 C6.39174901,5.38420313 6.70067069,4.64301563 7.06042537,3.97195312 C8.08606626,2.05889063 9.40563177,0.939984375 10.8081606,0.778921875 Z M8.27509877,1.19353125 C7.60293473,1.78696875 6.98609409,2.59289062 6.44968818,3.5934375 C6.05108941,4.33692187 5.71204286,5.16079687 5.4361234,6.044625 C4.43773005,5.83514062 3.54370567,5.57025 2.79908498,5.25796875 C4.14890616,3.32742187 6.06277315,1.87753125 8.27509877,1.19353125 Z M2.38426847,5.89621875 C3.17841429,6.24515625 4.14472094,6.53976563 5.22725468,6.77095313 C4.83170764,8.26940625 4.61002167,9.91495313 4.58133547,11.6210625 L0.711487685,11.6210625 C0.776663793,9.51609375 1.38243103,7.55592188 2.38426847,5.89621875 Z M4.65531798,19.605375 C4.72755665,19.6147031 4.80092882,19.6200469 4.87547808,19.6200469 L5.19695542,19.6200469 C5.27141749,19.6200469 5.34478966,19.6147031 5.41698473,19.6053281 L5.41698473,19.815375 L5.02435862,20.2534687 L4.65531798,19.8670781 L4.65531798,19.605375 L4.65531798,19.605375 Z M5.19695542,18.8621719 L4.87547808,18.8621719 C4.25270837,18.8621719 3.74607857,18.3174375 3.74607857,17.647875 L3.74607857,16.6456875 C4.20510148,16.5922969 5.0179936,16.4194688 5.64490493,15.8565469 C5.78528424,16.1153906 6.00239261,16.3953281 6.32626773,16.5587813 L6.32626773,17.6479219 C6.32622414,18.3174375 5.81963793,18.8621719 5.19695542,18.8621719 Z M6.10379704,15.0908438 C6.07323621,14.945625 5.96638227,14.833125 5.83066773,14.8033125 C5.6949532,14.7734063 5.5556202,14.8318125 5.47453153,14.9524688 C4.83584926,15.9016406 3.41200197,15.9120469 3.39482512,15.9120469 C3.39438916,15.9120469 3.39404039,15.9120469 3.39364803,15.9120469 C3.38152833,15.9120469 3.36949581,15.9127031 3.35768128,15.9139687 C3.35397562,15.9144375 3.35040074,15.9152344 3.34669507,15.9157969 C3.338717,15.9169219 3.33060813,15.918 3.32276084,15.9196875 C3.31774729,15.9208125 3.31286453,15.9225 3.30785099,15.9238125 C3.30157315,15.9255 3.29520813,15.927 3.28906108,15.9290156 C3.28526823,15.9302812 3.28169335,15.9320156 3.27794409,15.9334219 L3.27794409,15.6864375 C3.27794409,14.6961563 4.02718596,13.8905156 4.94819631,13.8905156 L5.11678227,13.8905156 C6.03774901,13.8905156 6.78690369,14.6961563 6.78690369,15.6864375 L6.78690369,15.930375 L6.7868165,15.930375 C6.78005911,15.9279844 6.77304015,15.9262031 6.76615197,15.9242812 C6.76305665,15.9234375 6.76004852,15.9222656 6.75690961,15.9214687 C6.26566921,15.8013281 6.10497414,15.0961406 6.10379704,15.0908438 Z M0.711444089,12.3789375 L4.58124828,12.3789375 C4.58565148,12.6399375 4.59502463,12.9006094 4.60840862,13.1591719 C3.45917291,13.336875 2.57295222,14.40225 2.57295222,15.6863906 L2.57295222,16.3569375 C2.34690665,16.553625 2.20194975,16.8538125 2.20194975,17.1899531 C2.20194975,17.7563906 2.61319138,18.2204062 3.13141773,18.258 C3.27162266,18.7202813 3.5665936,19.10775 3.9504133,19.3498125 L3.9504133,19.5632344 L3.5654165,19.7253281 C1.80147635,17.721375 0.796194828,15.1278281 0.711444089,12.3789375 Z M3.0411303,16.9262344 L3.0411303,17.4536719 C2.96047759,17.3977969 2.90681084,17.3005781 2.90681084,17.1900469 C2.90681084,17.0794219 2.96047759,16.9822031 3.0411303,16.9262344 Z M6.51900591,21.9224063 L6.51900591,23.242125 L6.10597685,23.242125 L4.30280025,23.242125 L3.92687143,23.242125 L3.61132315,23.242125 L1.93640616,23.242125 L1.93640616,22.2628594 C1.93640616,21.2063438 2.70456872,20.9001563 2.73443202,20.8887656 C2.73988153,20.8867969 2.74533103,20.8846875 2.75069335,20.8823906 L4.07998079,20.3226563 L4.78632414,21.0623438 C4.85215419,21.1312969 4.94039261,21.1698281 5.03220591,21.1698281 C5.03403695,21.1698281 5.03591158,21.1698281 5.03778621,21.1697813 C5.13156133,21.1682344 5.22093325,21.1264688 5.28593498,21.0538125 L5.95312906,20.3093438 L6.77783571,20.6648906 C6.62145665,21.009 6.51900591,21.4257656 6.51900591,21.9224063 Z M9.91941133,18.6110625 L8.04879163,19.3987031 C7.81058276,19.4868281 7.48090936,19.690125 7.188467,20.025375 L6.12180222,19.5654375 L6.12180222,19.3499062 C6.5058399,19.10775 6.80089803,18.7199531 6.94110296,18.2573437 C7.4538798,18.2137969 7.85893079,17.7522187 7.85893079,17.1899531 C7.85893079,16.8555469 7.71554335,16.5566719 7.49167759,16.3598906 L7.49167759,15.6863906 C7.49167759,14.3495625 6.5312564,13.2501094 5.31348768,13.1420625 C5.3000601,12.8892656 5.29077414,12.6342656 5.28628374,12.3788906 L8.47141182,12.3788906 C8.29545813,12.7793438 8.19658227,13.2262969 8.19658227,13.6978125 L8.19658227,14.5820625 C7.91508251,14.8094531 7.732633,15.1712812 7.732633,15.5782031 C7.732633,16.2583594 8.24257611,16.8126094 8.87297512,16.8230156 C9.03837857,17.4236719 9.41936453,17.9255156 9.91932414,18.2245312 L9.91932414,18.6110625 L9.91941133,18.6110625 Z M7.03112882,17.445375 L7.03112882,16.9345312 C7.10537291,16.9915313 7.1540697,17.0846719 7.1540697,17.19 C7.1540697,17.2953281 7.10537291,17.3884219 7.03112882,17.445375 Z M11.7535411,18.8755313 C11.7535411,18.8760469 11.7535411,18.8765625 11.7535411,18.8769375 L11.7535411,18.8999063 L11.1760677,19.5442031 L10.6242724,18.9663281 L10.6242724,18.4895156 C10.7426357,18.51075 10.8640071,18.5223281 10.9879507,18.5223281 L11.3899936,18.5223281 C11.51385,18.5223281 11.6351778,18.51075 11.7535411,18.4896094 L11.7535411,18.8755313 Z M11.3899936,17.7645 L10.9879507,17.7645 C10.1604103,17.7645 9.4871564,17.0406563 9.4871564,16.150875 L9.4871564,14.8129687 C10.0496328,14.7572813 11.1618554,14.5470469 11.974268,13.762875 C12.1457313,14.1117656 12.4331601,14.5168125 12.8906571,14.7269062 L12.8906571,16.1508281 C12.8906135,17.0406563 12.2174468,17.7645 11.3899936,17.7645 Z M15.1423936,20.0279531 C14.8499948,19.6918594 14.5199291,19.4878594 14.281197,19.3992656 L12.4583586,18.6132188 L12.4583586,18.2245313 C12.958449,17.9254688 13.3393478,17.4234844 13.5047076,16.8226406 C14.1284365,16.8040781 14.6306631,16.2531563 14.6306631,15.57825 C14.6306631,15.1736719 14.4501754,14.8136719 14.1714222,14.5860469 L14.1714222,13.6978594 C14.1714222,13.2263906 14.0725899,12.7793906 13.8965926,12.3789375 L17.0347677,12.3789375 C17.0301901,12.6353438 17.0208606,12.891375 17.0072586,13.1453906 C15.8081054,13.2733125 14.868436,14.3640469 14.868436,15.6863906 L14.868436,16.3570313 C14.642434,16.5536719 14.4975207,16.8538594 14.4975207,17.19 C14.4975207,17.7564844 14.9087623,18.2205 15.4269887,18.2580469 C15.5671936,18.7203281 15.8622081,19.1077969 16.2460278,19.3498594 L16.2460278,19.5632813 L15.1423936,20.0279531 Z M15.3368756,16.9262344 L15.3368756,17.4536719 C15.2561793,17.3977969 15.2025562,17.3005781 15.2025562,17.1900469 C15.2025562,17.0794219 15.2562229,16.9821563 15.3368756,16.9262344 Z M20.3923618,23.242125 L18.4017222,23.242125 L16.5985892,23.242125 L16.2225732,23.242125 L15.9070249,23.242125 L15.8097185,23.242125 L15.8097185,21.9223594 C15.8097185,21.4277344 15.7081833,21.012375 15.5528069,20.6691094 L16.3757261,20.3226094 L17.0819823,21.0622969 C17.1478123,21.13125 17.2360507,21.1698281 17.3279076,21.1698281 C17.3297387,21.1698281 17.3316133,21.1698281 17.3334443,21.1697813 C17.4272195,21.1682344 17.5165914,21.1264688 17.5816367,21.0538125 L18.2488744,20.3093438 L19.5753281,20.8812188 C19.5815187,20.8839375 19.5849628,20.8853438 19.5913714,20.8876875 C19.6240685,20.9001563 20.3924054,21.2063906 20.3924054,22.2629063 L20.3924054,23.242125 L20.3923618,23.242125 Z" id="Shape"></path>
            </g>
        </g>
    </g>
</svg>