<?xml version="1.0" encoding="UTF-8"?>
<svg width="123px" height="123px" viewBox="0 0 123 123" version="1.1" xmlns="http://www.w3.org/2000/svg" xmlns:xlink="http://www.w3.org/1999/xlink">
    <!-- Generator: Sketch 47 (45396) - http://www.bohemiancoding.com/sketch -->
    <title>Group 7</title>
    <desc>Created with Sketch.</desc>
    <defs></defs>
    <g id="-" stroke="none" stroke-width="1" fill="none" fill-rule="evenodd">
        <g id="Article" transform="translate(-40.000000, -1771.000000)">
            <g id="Group-7" transform="translate(40.000000, 1771.000000)">
                <rect id="Rectangle-10" fill="#2D9EE7" x="0" y="0" width="123" height="123"></rect>
                <g id="insight" transform="translate(33.000000, 30.000000)" fill-rule="nonzero">
                    <g id="Group" transform="translate(14.823529, 28.905882)" fill="#145587">
                        <rect id="Rectangle-path" x="0.0918022213" y="0.078088721" width="2.04129329" height="19.5017401"></rect>
                        <rect id="Rectangle-path" x="33.4811906" y="0.078088721" width="2.04129329" height="19.5017401"></rect>
                        <rect id="Rectangle-path" x="7.89785208" y="24.6105539" width="19.8199503" height="2.00852024"></rect>
                    </g>
                    <circle id="Oval" fill="#3EC0BF" cx="16.3058824" cy="54.8470588" r="8.15294118"></circle>
                    <circle id="Oval" fill="#FFA24E" cx="48.9176471" cy="54.8470588" r="8.15294118"></circle>
                    <circle id="Oval" fill="#FF6385" cx="48.9176471" cy="22.9764706" r="8.15294118"></circle>
                    <circle id="Oval" fill="#FFD065" cx="15.5647059" cy="15.5647059" r="15.5647059"></circle>
                    <g id="Group" opacity="0.5" transform="translate(4.447059, 4.447059)" fill="#E28922">
                        <path d="M11.1112941,8.30439367 C10.5574887,8.30439367 10.1088733,7.85553394 10.1088733,7.30197285 L10.1088733,1.11445249 C10.1088733,0.560891403 10.5576109,0.112031674 11.1112941,0.112031674 C11.6650995,0.112031674 12.1137149,0.560891403 12.1137149,1.11445249 L12.1137149,7.30197285 C12.1137149,7.85553394 11.6649774,8.30439367 11.1112941,8.30439367 Z" id="Shape"></path>
                        <path d="M7.29256561,12.1232443 L1.1048009,12.1232443 C0.550995475,12.1232443 0.10238009,11.6743846 0.10238009,11.1208235 C0.10238009,10.5672624 0.551117647,10.1184027 1.1048009,10.1184027 L7.29256561,10.1184027 C7.84637104,10.1184027 8.29498643,10.5672624 8.29498643,11.1208235 C8.29498643,11.6745068 7.8461267,12.1232443 7.29256561,12.1232443 Z" id="Shape"></path>
                        <path d="M11.1112941,22.1298597 C10.5574887,22.1298597 10.1088733,21.681 10.1088733,21.1274389 L10.1088733,14.9399186 C10.1088733,14.3863575 10.5576109,13.9374977 11.1112941,13.9374977 C11.6650995,13.9374977 12.1137149,14.3863575 12.1137149,14.9399186 L12.1137149,21.1274389 C12.1137149,21.6811222 11.6649774,22.1298597 11.1112941,22.1298597 Z" id="Shape"></path>
                        <path d="M21.1179095,12.1232443 L14.9301448,12.1232443 C14.3763394,12.1232443 13.927724,11.6743846 13.927724,11.1208235 C13.927724,10.5672624 14.3764615,10.1184027 14.9301448,10.1184027 L21.1179095,10.1184027 C21.6717149,10.1184027 22.1203303,10.5672624 22.1203303,11.1208235 C22.1203303,11.6745068 21.6715928,12.1232443 21.1179095,12.1232443 Z" id="Shape"></path>
                        <path d="M6.70088688,7.71271493 C6.44444796,7.71271493 6.18776471,7.6148552 5.99192308,7.41901357 L3.32674208,4.75395475 C2.93530317,4.36251584 2.93530317,3.72783258 3.32674208,3.33639367 C3.71830317,2.94495475 4.35298643,2.94495475 4.74442534,3.33639367 L7.40960633,6.00157466 C7.80104525,6.39301357 7.80104525,7.027819 7.40960633,7.41913575 C7.21400905,7.6148552 6.95732579,7.71271493 6.70088688,7.71271493 Z" id="Shape"></path>
                        <path d="M4.03570588,19.1990769 C3.77902262,19.1990769 3.52258371,19.1012172 3.32674208,18.9053756 C2.93530317,18.5139367 2.93530317,17.8791312 3.32674208,17.4878145 L5.99192308,14.8226335 C6.38372851,14.4310724 7.01828959,14.4311946 7.40960633,14.8226335 C7.80104525,15.2140724 7.80104525,15.8488778 7.40960633,16.2401946 L4.74442534,18.9053756 C4.54882805,19.101095 4.2921448,19.1990769 4.03570588,19.1990769 Z" id="Shape"></path>
                        <path d="M18.1871267,19.1990769 C17.9306878,19.1990769 17.6740045,19.1012172 17.4781629,18.9053756 L14.8128597,16.2401946 C14.4214208,15.8487557 14.4214208,15.2140724 14.8128597,14.8226335 C15.2044208,14.4311946 15.8391041,14.4311946 16.230543,14.8226335 L18.895724,17.4878145 C19.2871629,17.8792534 19.2871629,18.5140588 18.895724,18.9053756 C18.7001267,19.101095 18.4436878,19.1990769 18.1871267,19.1990769 Z" id="Shape"></path>
                        <path d="M15.5218235,7.71271493 C15.2651403,7.71271493 15.0087014,7.6148552 14.8128597,7.41901357 C14.4214208,7.02757466 14.4214208,6.39276923 14.8128597,6.00145249 L17.4781629,3.33627149 C17.8699683,2.94483258 18.5045294,2.94483258 18.8958462,3.33627149 C19.2872851,3.72771041 19.2872851,4.36251584 18.8958462,4.75383258 L16.2306652,7.41901357 C16.0349457,7.6148552 15.7783846,7.71271493 15.5218235,7.71271493 Z" id="Shape"></path>
                    </g>
                </g>
            </g>
        </g>
    </g>
</svg>