<?xml version="1.0" encoding="UTF-8"?>
<svg width="32px" height="32px" viewBox="0 0 32 32" version="1.1" xmlns="http://www.w3.org/2000/svg" xmlns:xlink="http://www.w3.org/1999/xlink">
    <!-- Generator: Sketch 47 (45396) - http://www.bohemiancoding.com/sketch -->
    <title>link</title>
    <desc>Created with Sketch.</desc>
    <defs></defs>
    <g id="-" stroke="none" stroke-width="1" fill="none" fill-rule="evenodd">
        <g id="Dashboard" transform="translate(-599.000000, -769.000000)" fill-rule="nonzero">
            <g id="link" transform="translate(599.000000, 769.000000)">
                <path d="M0,16.000387 C0,7.16303068 7.16352452,0 15.9998065,0 C24.8364755,0 32,7.16303068 32,16.000387 C32,24.8365178 24.8364755,32 15.9998065,32 C7.16352452,32 0,24.8365178 0,16.000387 Z" id="Shape" fill="#25B7D3"></path>
                <g id="Group" transform="translate(6.000000, 6.000000)" fill="#FFFFFF">
                    <path d="M19.4492258,3.76187097 L16.2482581,0.560967742 C15.5561935,-0.13116129 14.434129,-0.131032258 13.7421935,0.560967742 L8.79825806,5.50483871 C8.10625806,6.19696774 8.10619355,7.31896774 8.79819355,8.01109677 L11.9991613,11.212 C12.6912258,11.9040645 13.8132903,11.904 14.5052903,11.211871 L19.4492258,6.268 C20.1411613,5.57606452 20.1412258,4.45393548 19.4492258,3.76187097 Z M14.1670968,9.18858065 C13.7613548,9.59425806 13.1036129,9.59432258 12.6979355,9.18864516 L10.8215484,7.31225806 C10.415871,6.90658065 10.4159355,6.24883871 10.8216129,5.84309677 L14.0803871,2.58432258 C14.486,2.17870968 15.1437419,2.17864516 15.5494839,2.58432258 L17.425871,4.46077419 C17.8315484,4.8663871 17.8314839,5.52412903 17.425871,5.92980645 L14.1670968,9.18858065 Z" id="Shape"></path>
                    <path d="M11.212,11.9990968 L8.01109677,8.79819355 C7.31903226,8.10612903 6.19696774,8.10619355 5.50496774,8.79819355 L0.561032258,13.7421935 C-0.130967742,14.4341935 -0.131032258,15.5562581 0.561032258,16.2482581 L3.762,19.4492258 C4.454,20.1412903 5.57612903,20.1411613 6.26806452,19.4492258 L11.2120645,14.5051613 C11.9039355,13.8132258 11.9040645,12.6911613 11.212,11.9990968 Z M5.92980645,17.4258065 C5.52412903,17.8314839 4.86645161,17.8316129 4.46070968,17.425871 L2.58432258,15.5494839 C2.17858065,15.1438065 2.17864516,14.4860645 2.58432258,14.0803871 L5.84316129,10.8215484 C6.24877419,10.4159355 6.90651613,10.415871 7.31225806,10.8215484 L9.18864516,12.6979355 C9.59432258,13.1036774 9.59425806,13.7614194 9.18864516,14.1670323 L5.92980645,17.4258065 Z" id="Shape"></path>
                </g>
                <path d="M19.6406507,12.5092251 L19.4908832,12.3593957 C19.0117509,11.8802014 18.2320933,11.8802014 17.752899,12.3593957 L12.3593493,17.7529455 C11.8802169,18.2320778 11.8802169,19.0117354 12.3593493,19.4908677 L12.5091168,19.6406972 C12.9882491,20.1197676 13.7679067,20.1197676 14.247101,19.6406972 L19.6406507,14.2470855 C20.1197831,13.768015 20.1197831,12.9882955 19.6406507,12.5092251 Z" id="Shape" fill="#48A1AF"></path>
                <path d="M13.7646757,19.7256194 C13.3988817,20.0914146 12.8057318,20.091483 12.4399378,19.7256878 L12.2743455,19.560095 C11.9085515,19.1942998 11.9085515,18.601148 12.2743455,18.2354212 L18.2353927,12.2743549 C18.6011867,11.9084914 19.1942682,11.9085598 19.5601306,12.2744917 L19.7256545,12.4400161 C20.0913801,12.8058113 20.0915169,13.3988947 19.7256545,13.7646215 L13.7646757,19.7256194 Z" id="Shape" fill="#FFFFFF"></path>
            </g>
        </g>
    </g>
</svg>