<?xml version="1.0" encoding="UTF-8"?>
<svg width="30px" height="23px" viewBox="0 0 30 23" version="1.1" xmlns="http://www.w3.org/2000/svg" xmlns:xlink="http://www.w3.org/1999/xlink">
    <!-- Generator: Sketch 47 (45396) - http://www.bohemiancoding.com/sketch -->
    <title>mail</title>
    <desc>Created with Sketch.</desc>
    <defs></defs>
    <g id="Desktop" stroke="none" stroke-width="1" fill="none" fill-rule="evenodd">
        <g id="Authors" transform="translate(-674.000000, -493.000000)" fill-rule="nonzero" fill="#0020A4">
            <g id="mail" transform="translate(674.293596, 493.000000)">
                <path d="M26.5175645,22.529 L2.32512315,22.529 C1.04351527,22.529 0,21.408 0,20.029 L0,2.982 C0,1.603 1.04351527,0.482 2.32512315,0.482 L26.5175645,0.482 C27.7991724,0.482 28.8426877,1.603 28.8426877,2.982 L28.8426877,20.029 C28.8426877,21.408 27.7991724,22.529 26.5175645,22.529 Z M2.32512315,1.482 C1.55597241,1.482 0.930049261,2.155 0.930049261,2.982 L0.930049261,20.029 C0.930049261,20.856 1.55597241,21.529 2.32512315,21.529 L26.5175645,21.529 C27.2867153,21.529 27.9126384,20.856 27.9126384,20.029 L27.9126384,2.982 C27.9126384,2.155 27.2867153,1.482 26.5175645,1.482 L2.32512315,1.482 Z" id="Shape"></path>
                <path d="M14.4213438,14.018 C13.8028611,14.018 13.1843783,13.797 12.7137734,13.356 L0.828673892,2.219 C0.635223645,2.037 0.614762562,1.722 0.784031527,1.514 C0.953300493,1.304 1.24719606,1.284 1.44064631,1.465 L13.3248158,12.602 C13.9200473,13.159 14.9245005,13.158 15.5178719,12.602 L27.3992512,1.466 C27.5917714,1.283 27.8847369,1.304 28.055866,1.515 C28.225135,1.723 28.2046739,2.038 28.0112236,2.22 L16.1289143,13.355 C15.6583094,13.797 15.0398266,14.018 14.4213438,14.018 Z" id="Shape"></path>
            </g>
        </g>
    </g>
</svg>