<?xml version="1.0" encoding="UTF-8"?>
<svg width="123px" height="123px" viewBox="0 0 123 123" version="1.1" xmlns="http://www.w3.org/2000/svg" xmlns:xlink="http://www.w3.org/1999/xlink">
    <!-- Generator: Sketch 47 (45396) - http://www.bohemiancoding.com/sketch -->
    <title>Group 6</title>
    <desc>Created with Sketch.</desc>
    <defs></defs>
    <g id="-" stroke="none" stroke-width="1" fill="none" fill-rule="evenodd">
        <g id="Article" transform="translate(-246.000000, -1771.000000)">
            <g id="Group-6" transform="translate(246.000000, 1771.000000)">
                <rect id="Rectangle-10" fill="#3EC0BF" x="0" y="0" width="123" height="123"></rect>
                <g id="customer-service" transform="translate(30.000000, 30.000000)" fill-rule="nonzero">
                    <circle id="Oval" fill="#FF6385" cx="31.5" cy="31.5" r="31.5"></circle>
                    <path d="M54.8181818,31.3636364 L51.8863714,31.3636364 C51.8863714,20.0349407 42.6720746,10.8041883 31.3635746,10.8041883 C20.0550746,10.8041883 10.8409014,20.0350644 10.8409014,31.3636364 L7.90909091,31.3636364 C7.90909091,18.4406325 18.4217344,7.90909091 31.3218239,7.90909091 C44.3055383,7.90921465 54.8181818,18.4406325 54.8181818,31.3636364 Z" id="Shape" fill="#F1F3F7"></path>
                    <g id="Group" transform="translate(13.363636, 13.363636)" fill="#4F5565">
                        <circle id="Oval" cx="18.0178144" cy="17.9736495" r="17.9533608"></circle>
                        <circle id="Oval" cx="18.0178144" cy="17.9736495" r="17.9533608"></circle>
                        <path d="M24.0581443,12.2689485 C24.0581443,12.2689485 25.0649072,18.7707216 31.9023093,22.4621443 L31.9023093,18.5610309 C31.9023093,10.8847423 25.6941031,4.67653608 18.0178144,4.67653608 L18.0178144,4.67653608 C10.3415258,4.67653608 4.13331959,10.8847423 4.13331959,18.5610309 L4.13331959,23.0913402 C20.7862268,20.9099381 24.0581443,12.2689485 24.0581443,12.2689485 Z" id="Shape"></path>
                    </g>
                    <path d="M37.4568029,25.6363636 C37.4568029,25.6363636 34.1790893,34.2674322 17.4545455,36.4880643 L17.4545455,41.2225543 C17.4545455,48.8899196 23.6737493,55.0909091 31.3636364,55.0909091 L31.3636364,55.0909091 C39.0535234,55.0909091 45.2727273,48.8899196 45.2727273,41.2225543 L45.2727273,35.8177104 C38.4653493,32.1305788 37.4568029,25.6363636 37.4568029,25.6363636 Z" id="Shape" fill="#F6CEB0"></path>
                    <path d="M9.40863267,28.3636364 C7.67114286,28.3636364 6.27272727,29.7538399 6.27272727,31.4811264 L6.27272727,40.7916009 C6.27272727,42.5188874 7.67114286,43.9090909 9.40863267,43.9090909 C11.1461225,43.9090909 12.5445381,42.5188874 12.5445381,40.7916009 L12.5445381,31.4811264 C12.5870317,29.7539641 11.1461225,28.3636364 9.40863267,28.3636364 Z" id="Shape" fill="#F1F3F7"></path>
                    <path d="M6.18995251,31.6363636 C3.66483377,31.6363636 1.63636364,33.7017071 1.63636364,36.2727273 C1.63636364,38.8437474 3.66483377,40.9090909 6.18995251,40.9090909 L6.27272727,40.9090909 L6.27272727,31.6363636 L6.18995251,31.6363636 Z" id="Shape" fill="#6EB1E1"></path>
                    <path d="M53.5913673,43.9090909 C55.3288571,43.9090909 56.7272727,42.5188874 56.7272727,40.7916009 L56.7272727,31.4811264 C56.7272727,29.7538399 55.3288571,28.3636364 53.5913673,28.3636364 C51.8538775,28.3636364 50.4554619,29.7538399 50.4554619,31.4811264 L50.4554619,40.7916009 C50.4129683,42.5188874 51.8538775,43.9090909 53.5913673,43.9090909 Z" id="Shape" fill="#F1F3F7"></path>
                    <path d="M56.5373202,40.9090909 C59.062439,40.9090909 61.0909091,38.8437474 61.0909091,36.2727273 C61.0909091,33.7017071 59.062439,31.6363636 56.5373202,31.6363636 L56.4545455,31.6363636 L56.4545455,40.9090909 L56.5373202,40.9090909 Z" id="Shape" fill="#6EB1E1"></path>
                </g>
            </g>
        </g>
    </g>
</svg>