<?xml version="1.0" encoding="UTF-8"?>
<svg width="22px" height="24px" viewBox="0 0 22 24" version="1.1" xmlns="http://www.w3.org/2000/svg" xmlns:xlink="http://www.w3.org/1999/xlink">
    <!-- Generator: Sketch 47 (45396) - http://www.bohemiancoding.com/sketch -->
    <title>telephone-receiver-with-circular-arrows</title>
    <desc>Created with Sketch.</desc>
    <defs></defs>
    <g id="Desktop" stroke="none" stroke-width="1" fill="none" fill-rule="evenodd">
        <g id="Authors" transform="translate(-531.000000, -491.000000)" fill-rule="nonzero" fill="#525252">
            <g id="telephone-receiver-with-circular-arrows" transform="translate(531.066010, 491.000000)">
                <path d="M10.7967096,0.510171429 L10.7967096,0 L9.88205164,0.728228571 L10.7967096,1.45645714 L10.7967096,1.05874286 C16.3733134,1.11977143 20.8922854,6.11451429 20.8922854,12.2523429 C20.8922854,18.4272 16.3183715,23.4514286 10.6955665,23.4514286 C5.07276153,23.4514286 0.498847565,18.4272 0.498847565,12.2523429 L0,12.2523429 C0,18.7296 4.79742765,24 10.6955665,24 C16.5937054,24 21.391133,18.7296 21.391133,12.2523429 C21.391133,5.8128 16.6473986,0.571885714 10.7967096,0.510171429 Z" id="Shape"></path>
                <path d="M11.123818,22.4985608 L11.123818,23 L12.0394073,22.270509 L11.123818,21.5410179 L11.123818,21.9497252 C6.28721278,21.9284312 2.35809434,17.5851433 2.35809434,12.2506542 C2.35809434,6.90174015 6.305911,2.54952244 11.1605911,2.54952244 C16.0140247,2.54952244 19.9618414,6.90174015 19.9618414,12.2506542 L20.4610837,12.2506542 C20.4610837,6.59812901 16.2907583,2 11.1605911,2 C6.03042395,2 1.86009852,6.59881591 1.86009852,12.2506542 C1.86009852,17.8887544 6.01359556,22.4765799 11.123818,22.4985608 Z" id="Shape"></path>
                <path d="M9.2119903,14.0958253 C9.22562988,14.1111574 9.23988945,14.1271561 9.25228907,14.1424881 L9.254769,14.1391551 C9.78361294,14.6864428 10.408554,15.4923756 11.4259431,16.223648 C13.569218,17.7608533 15.214648,17.3322223 16.1830586,16.7609366 C17.8526679,15.7716857 18.6009852,13.6571952 18.6009852,12.0006666 C18.6009852,7.58903425 15.2636266,4 11.1612111,4 C7.05755571,4 3.72019704,7.58903425 3.72019704,12.0006666 C3.72019704,16.4116324 7.05755571,20 11.1612111,20 C11.4129235,20 11.6181372,19.7786851 11.6181372,19.5073744 C11.6181372,19.2360637 11.4129235,19.0147488 11.1612111,19.0147488 C7.56346035,19.0147488 4.63776918,15.8676777 4.63776918,12.0013332 C4.63776918,8.13365553 7.56470031,4.98725106 11.1612111,4.98725106 C14.7577219,4.98725106 17.6834131,8.13365553 17.6834131,12.0013332 C17.6834131,13.6171986 16.8830174,15.2197317 15.7385321,15.8970086 C15.3231447,16.1429881 14.8717985,16.2656445 14.3906931,16.2709774 C14.6789843,16.0856595 14.9294567,15.836347 15.116071,15.5197067 C15.1538899,15.4610449 15.1997685,15.4090492 15.2251877,15.3437214 C15.3739832,14.9570869 15.3888628,14.51979 15.4756601,14.1111574 C15.5884967,13.5885343 13.3553245,12.5712857 13.1618904,13.2218982 C13.0905925,13.4632114 12.9839558,14.2244813 12.8419801,14.4257979 C12.7186038,14.6057829 12.4098532,14.51979 12.2145591,14.3431381 C11.7049346,13.8778435 11.1382718,13.1912341 10.639187,12.6499458 L10.6404269,12.6492792 C10.6267873,12.6352804 10.6106678,12.6199483 10.5982682,12.6059495 C10.5846286,12.5912841 10.5691291,12.5746188 10.5567295,12.5606199 L10.5567295,12.5612866 C10.0533048,12.0266644 9.4159641,11.4160487 8.9813573,10.8674277 C8.81768227,10.659445 8.73708472,10.3281393 8.90633958,10.1928173 C9.09295391,10.0408299 9.79973245,9.92617282 10.0254056,9.85151237 C10.6298872,9.64286309 9.68503594,7.24106324 9.19835071,7.36105325 C8.81830225,7.45704525 8.41097462,7.47104408 8.0526255,7.63169736 C7.9900074,7.65902841 7.94226885,7.71035747 7.88771051,7.74902091 C6.61178925,8.61894842 6.44811422,10.7287726 7.69303642,12.299975 C8.16918196,12.899925 8.66268698,13.4825431 9.17169152,14.0498292 L9.16797163,14.0524956 C9.18285118,14.0671611 9.19897069,14.0804933 9.2119903,14.0958253 Z" id="Shape"></path>
            </g>
        </g>
    </g>
</svg>