<?xml version="1.0" encoding="UTF-8"?>
<svg width="32px" height="32px" viewBox="0 0 32 32" version="1.1" xmlns="http://www.w3.org/2000/svg" xmlns:xlink="http://www.w3.org/1999/xlink">
    <!-- Generator: Sketch 47 (45396) - http://www.bohemiancoding.com/sketch -->
    <title>post-office</title>
    <desc>Created with Sketch.</desc>
    <defs></defs>
    <g id="-" stroke="none" stroke-width="1" fill="none" fill-rule="evenodd">
        <g id="Dashboard" transform="translate(-861.000000, -503.000000)" fill-rule="nonzero">
            <g id="post-office" transform="translate(861.000000, 503.000000)">
                <rect id="Rectangle-path" fill="#E6E6E6" x="2" y="7" width="28" height="25"></rect>
                <path d="M21,31.9999226 L21,15.8530066 C21,13.7284877 22.794394,12 25,12 C27.205606,12 29,13.7284877 29,15.8530066 L29,32 L21,32 L21,31.9999226 L21,31.9999226 Z" id="Shape" fill="#CCCCCC"></path>
                <path d="M22,25.9999235 L22,15.4263536 C22,13.5370144 23.5700942,12 25.5,12 C27.4299058,12 29,13.5370909 29,15.4263536 L29,26 L22,25.9999235 L22,25.9999235 Z" id="Shape" fill="#B3B3B3"></path>
                <path d="M22,25.9999191 L22,15.2198609 C22,13.444379 23.3457359,12 24.9999623,12 C26.6541887,12 28,13.444379 28,15.2198609 L28,26 L22,25.9999191 L22,25.9999191 Z" id="Shape" fill="#F2F2F2"></path>
                <path d="M24.4999641,13 L24.4999641,13 C25.8806442,13 27,14.2422484 27,15.77461 L27,26 L22,26 L22,15.7746897 C22,14.2422484 23.119284,13 24.4999641,13 Z" id="Shape" fill="#2D4151"></path>
                <path d="M13.0631596,12 C11.8267657,12 10.7223035,12.5635955 10.0000395,13.442475 C9.27777558,12.5635178 8.17331331,12 6.93691949,12 C4.7660962,12 3,13.7358493 3,15.8694164 L3,27 L9.12624007,27 L10.8737599,27 L17,27 L17,15.8694941 C17.000079,13.7358493 15.2339828,12 13.0631596,12 Z" id="Shape" fill="#CCCCCC"></path>
                <path d="M12.5145745,12 C11.2287097,12 10.1041129,12.6885133 9.5000389,13.7097736 C8.89596486,12.6885898 7.77136805,12 6.4855033,12 C4.56359099,12 3,13.5370909 3,15.4263536 L3,26 L9.02907119,26 L9.97092881,26 L16,26 L16,15.4264301 C16.0000778,13.5370909 14.4364868,12 12.5145745,12 Z" id="Shape" fill="#B3B3B3"></path>
                <path d="M12.9598045,12 C11.5216254,12 10.3143463,13.0634447 10.0000382,14.4867101 C9.68573011,13.0635256 8.47852737,12 7.04027192,12 C5.3638603,12 4,13.444379 4,15.2198609 L4,26 L9.91953255,26 L10.0804675,26 L16,26 L16,15.2199418 C16.0000764,13.4444599 14.6362161,12 12.9598045,12 Z" id="Shape" fill="#F2F2F2"></path>
                <path d="M6.49996408,13 L6.49996408,13 C7.88064419,13 9,14.2422484 9,15.77461 L9,26 L4,26 L4,15.7746897 C4,14.2422484 5.11928398,13 6.49996408,13 Z" id="Shape" fill="#2D4151"></path>
                <path d="M12.4999641,13 L12.4999641,13 C13.8806442,13 15,14.2422484 15,15.77461 L15,26 L10,26 L10,15.7746897 C10,14.2422484 11.119284,13 12.4999641,13 Z" id="Shape" fill="#2D4151"></path>
                <rect id="Rectangle-path" fill="#B3B3B3" x="22" y="27" width="7" height="5"></rect>
                <rect id="Rectangle-path" fill="#E6E6E6" x="22" y="27" width="6" height="4"></rect>
                <rect id="Rectangle-path" fill="#CCCCCC" x="23" y="28" width="5" height="3"></rect>
                <circle id="Oval" fill="#D8D4D5" cx="25.5" cy="19.5" r="1"></circle>
                <polygon id="Shape" fill="#C1B9BC" points="25.972264 20 24.9772765 19.0711711 24.0280702 19.9772376 24 19.9325368 24.9770259 19 26 19.9548872"></polygon>
                <path d="M27,20.6990897 C27,20.8646656 26.8400616,21 26.6445813,21 L24.3554187,21 C24.1599384,21 24,20.8646656 24,20.6990897 L24,20.3009103 C24,20.1354848 24.1599384,20 24.3554187,20 L26.6445813,20 C26.8400616,20 27,20.1354848 27,20.3009103 L27,20.6990897 Z" id="Shape" fill="#F93030"></path>
                <g id="Group" transform="translate(24.000000, 20.000000)" fill="#FAFCFC">
                    <path d="M0.318231365,0.0771818182 C0.387775452,0.0771818182 0.446905283,0.0965454545 0.495620858,0.135 C0.544336433,0.173454545 0.568636364,0.219818182 0.568636364,0.274 L0.568636364,0.722636364 C0.568636364,0.777363636 0.544105005,0.823727273 0.495158002,0.862 C0.446210999,0.900272727 0.387196882,0.919363636 0.318231365,0.919363636 C0.248687278,0.919363636 0.189673161,0.900181818 0.141304727,0.861636364 C0.0929362942,0.823181818 0.0686363636,0.776818182 0.0686363636,0.722636364 L0.0686363636,0.274 C0.0686363636,0.219363636 0.0931677221,0.172909091 0.142114725,0.134636364 C0.190946014,0.0963636364 0.249728703,0.0771818182 0.318231365,0.0771818182 Z M0.404206833,0.271454545 C0.404206833,0.251727273 0.395412573,0.235090909 0.377939766,0.221181818 C0.360351244,0.207454545 0.339175591,0.200545455 0.314065662,0.200545455 C0.289071448,0.200545455 0.267664366,0.207363636 0.249844417,0.221181818 C0.232024468,0.235 0.223114494,0.251727273 0.223114494,0.271454545 L0.223114494,0.721363636 C0.223114494,0.741 0.232024468,0.757727273 0.249844417,0.771454545 C0.267664366,0.785272727 0.289071448,0.792181818 0.314065662,0.792181818 C0.339175591,0.792181818 0.360351244,0.785363636 0.377939766,0.771454545 C0.395412573,0.757818182 0.404206833,0.741 0.404206833,0.721363636 L0.404206833,0.271454545 Z" id="Shape"></path>
                    <path d="M0.821751453,0.0877272727 C0.899212955,0.0877272727 0.960925508,0.106727273 1.00688911,0.144818182 C1.04946961,0.181 1.07081818,0.227363636 1.07081818,0.283818182 L1.07081818,0.403181818 C1.07081818,0.457454545 1.04655313,0.503727273 0.998023035,0.542181818 C0.949492937,0.580727273 0.890696857,0.599909091 0.821634794,0.599909091 L0.729940907,0.599909091 L0.729940907,0.909545455 L0.570818182,0.909545455 L0.570818182,0.0877272727 L0.821751453,0.0877272727 L0.821751453,0.0877272727 Z M0.916945107,0.285818182 C0.916945107,0.264363636 0.908662326,0.247090909 0.892096763,0.234 C0.875531201,0.220909091 0.853482671,0.214272727 0.826067832,0.214272727 L0.730174225,0.214272727 L0.730174225,0.477363636 L0.826067832,0.477363636 C0.851382811,0.477363636 0.872731388,0.470363636 0.890463539,0.456363636 C0.908079031,0.442454545 0.916945107,0.425636364 0.916945107,0.405909091 L0.916945107,0.285818182 L0.916945107,0.285818182 Z" id="Shape"></path>
                    <polygon id="Shape" points="1.05954545 0.909636364 1.05954545 0.0871818182 1.55954545 0.0871818182 1.55954545 0.211727273 1.23514453 0.211727273 1.23514453 0.436090909 1.47219683 0.436090909 1.47219683 0.560727273 1.23514453 0.560727273 1.23514453 0.785 1.55954545 0.785 1.55954545 0.909636364 1.05954545 0.909636364"></polygon>
                    <polygon id="Shape" points="1.66035482 0.0871818182 1.85274428 0.639909091 1.85274428 0.0871818182 1.99772727 0.0871818182 1.99772727 0.909636364 1.84200874 0.909636364 1.64271027 0.383 1.64271027 0.909636364 1.49772727 0.909636364 1.49772727 0.0871818182"></polygon>
                </g>
                <path d="M28,18 L28,25 L24,25 C24,24.9999231 27.5099987,23.8758462 28,18 Z" id="Shape" fill="#FCFAFA" opacity="0.2"></path>
                <path d="M15,18 L15,25 L11,25 C11,24.9999231 14.5099987,23.8758462 15,18 Z" id="Shape" fill="#FCFAFA" opacity="0.2"></path>
                <path d="M9,18 L9,25 L5,25 C5,24.9999231 8.50999866,23.8758462 9,18 Z" id="Shape" fill="#FCFAFA" opacity="0.2"></path>
                <rect id="Rectangle-path" fill="#999999" x="0" y="6" width="32" height="1"></rect>
                <rect id="Rectangle-path" fill="#CCCCCC" x="2" y="7" width="28" height="1"></rect>
                <polygon id="Shape" fill="#F93030" points="1 6 16 0 31 6"></polygon>
                <path d="M0,21.8691506 L0,32 L0.676056338,32 L0.676056338,30.9211186 L5.32394366,30.9211186 L5.32394366,32 L6,32 L6,21.8691506 C6,20.2845712 4.65684507,19 3,19 L3,19 C1.34315493,19 0,20.2845712 0,21.8691506 Z" id="Shape" fill="#F93030"></path>
                <rect id="Rectangle-path" fill="#2D4151" x="1" y="22" width="4" height="1"></rect>
                <rect id="Rectangle-path" fill="#B52828" x="1" y="26" width="4" height="4"></rect>
                <g id="Group" transform="translate(7.000000, 9.000000)" fill="#999999">
                    <path d="M0.751230769,0.0906153846 C1.11676923,0.0906153846 1.391,0.336846154 1.391,0.707538462 C1.391,1.07569231 1.11684615,1.32192308 0.751230769,1.32192308 L0.329769231,1.32192308 L0.329769231,1.982 L0.0505384615,1.982 L0.0505384615,0.0906153846 C0.0505384615,0.0906153846 0.751230769,0.0906153846 0.751230769,0.0906153846 Z M0.751230769,1.05284615 C0.959461538,1.05284615 1.11176923,0.910615385 1.11176923,0.707538462 C1.11176923,0.501923077 0.959461538,0.357153846 0.751230769,0.357153846 L0.329769231,0.357153846 L0.329769231,1.05276923 L0.751230769,1.05284615 L0.751230769,1.05284615 Z" id="Shape"></path>
                    <path d="M2.55861538,0.0448461538 C3.11461538,0.0448461538 3.52338462,0.468846154 3.52338462,1.02738462 C3.52338462,1.58338462 3.11461538,1.99469231 2.55861538,1.99469231 C2.00007692,1.99469231 1.58876923,1.58338462 1.58876923,1.02738462 C1.58876923,0.468846154 2.00007692,0.0448461538 2.55861538,0.0448461538 Z M2.55861538,1.71546154 C2.95215385,1.71546154 3.24661538,1.42346154 3.24661538,1.02746154 C3.24661538,0.631384615 2.95207692,0.321692308 2.55861538,0.321692308 C2.16,0.321692308 1.868,0.631384615 1.868,1.02746154 C1.868,1.42346154 2.16,1.71546154 2.55861538,1.71546154 Z" id="Shape"></path>
                    <path d="M4.00284615,1.43361538 C4.06630769,1.57830769 4.20084615,1.71546154 4.35569231,1.71546154 C4.55884615,1.71546154 4.68069231,1.59107692 4.68069231,1.44630769 C4.68069231,1.28123077 4.49792308,1.17715385 4.30492308,1.068 C4.08153846,0.941076923 3.84030769,0.809076923 3.84030769,0.552615385 C3.84030769,0.291153846 4.00784615,0.0448461538 4.36076923,0.0448461538 C4.57907692,0.0448461538 4.75176923,0.171769231 4.84569231,0.387615385 L4.607,0.534923077 C4.54353846,0.387615385 4.46484615,0.321692308 4.35315385,0.321692308 C4.16015385,0.321692308 4.11953846,0.463846154 4.11953846,0.552692308 C4.11953846,0.661846154 4.26169231,0.740538462 4.42415385,0.829384615 C4.66784615,0.961384615 4.95984615,1.11884615 4.95984615,1.47176923 C4.95984615,1.79676923 4.64507692,1.99476923 4.35561538,1.99476923 C4.08146154,1.99476923 3.82246154,1.77384615 3.74123077,1.52761538 L4.00284615,1.43361538 Z" id="Shape"></path>
                    <path d="M5.97023077,0.357153846 L5.97023077,1.982 L5.69092308,1.982 L5.69092308,0.357153846 L5.173,0.357153846 L5.173,0.0906153846 L6.50330769,0.0906153846 L6.50330769,0.357153846 C6.50330769,0.357153846 5.97023077,0.357153846 5.97023077,0.357153846 Z" id="Shape"></path>
                    <path d="M8.55946154,0.0448461538 C9.11553846,0.0448461538 9.52423077,0.468846154 9.52423077,1.02738462 C9.52423077,1.58338462 9.11553846,1.99469231 8.55946154,1.99469231 C8.00092308,1.99469231 7.58961538,1.58338462 7.58961538,1.02738462 C7.58961538,0.468846154 8.00084615,0.0448461538 8.55946154,0.0448461538 Z M8.55946154,1.71546154 C8.953,1.71546154 9.24746154,1.42346154 9.24746154,1.02746154 C9.24746154,0.631384615 8.953,0.321692308 8.55946154,0.321692308 C8.16084615,0.321692308 7.86884615,0.631384615 7.86884615,1.02746154 C7.86884615,1.42346154 8.16084615,1.71546154 8.55946154,1.71546154 Z" id="Shape"></path>
                    <polygon id="Shape" points="10.1433077 0.357153846 10.1433077 0.915692308 11.0192308 0.915692308 11.0192308 1.18223077 10.1433077 1.18223077 10.1433077 1.98192308 9.86407692 1.98192308 9.86407692 0.0905384615 11.1639231 0.0905384615 11.1639231 0.357076923"></polygon>
                    <polygon id="Shape" points="11.7653846 0.357153846 11.7653846 0.915692308 12.6413077 0.915692308 12.6413077 1.18223077 11.7653846 1.18223077 11.7653846 1.98192308 11.4861538 1.98192308 11.4861538 0.0905384615 12.786 0.0905384615 12.786 0.357076923"></polygon>
                    <polygon id="Shape" points="13.1031538 1.982 13.1031538 0.0906153846 13.6031538 0.0906153846 13.6031538 1.982"></polygon>
                    <path d="M15.322,0.506923077 C15.19,0.402846154 14.9513846,0.321615385 14.6771538,0.321615385 C14.2811538,0.321615385 13.9916923,0.631307692 13.9916923,1.02484615 C13.9916923,1.41838462 14.2811538,1.71792308 14.6771538,1.71792308 C14.9513077,1.71792308 15.1874615,1.63669231 15.322,1.53261538 L15.322,1.87538462 C15.1874615,1.94138462 14.9539231,1.99469231 14.6771538,1.99469231 C14.1210769,1.99469231 13.7098462,1.58338462 13.7098462,1.02738462 C13.7098462,0.468846154 14.1211538,0.0448461538 14.6771538,0.0448461538 C14.9513077,0.0448461538 15.1849231,0.0981538462 15.322,0.166692308 L15.322,0.506923077 Z" id="Shape"></path>
                    <polygon id="Shape" points="15.9487692 0.357153846 15.9487692 0.915692308 16.8246923 0.915692308 16.8246923 1.18223077 15.9487692 1.18223077 15.9487692 1.71538462 16.9694615 1.71538462 16.9694615 1.98192308 15.6696154 1.98192308 15.6696154 0.0905384615 16.9694615 0.0905384615 16.9694615 0.357076923"></polygon>
                </g>
                <polygon id="Shape" fill="#D64141" points="16 0 16 6 31 6"></polygon>
                <rect id="Rectangle-path" fill="#CCCCCC" x="7" y="28" width="2" height="1"></rect>
                <rect id="Rectangle-path" fill="#CCCCCC" x="9" y="28" width="2" height="1"></rect>
                <rect id="Rectangle-path" fill="#CCCCCC" x="19" y="16" width="2" height="1"></rect>
                <rect id="Rectangle-path" fill="#CCCCCC" x="27" y="9" width="2" height="1"></rect>
                <rect id="Rectangle-path" fill="#CCCCCC" x="26" y="10" width="2" height="1"></rect>
                <rect id="Rectangle-path" fill="#CCCCCC" x="3" y="9" width="2" height="1"></rect>
                <rect id="Rectangle-path" fill="#CCCCCC" x="18" y="15" width="2" height="1"></rect>
                <rect id="Rectangle-path" fill="#CCCCCC" x="8" y="29" width="2" height="1"></rect>
            </g>
        </g>
    </g>
</svg>